<svg width="256" height="256" viewBox="0 0 256 256" fill="none" xmlns="http://www.w3.org/2000/svg">
<g clip-path="url(#clip0_28_2)">
<path d="M108.692 254.535C86.2369 251.109 65.0984 241.769 47.4459 227.474C29.7934 213.179 16.2629 194.444 8.24321 173.192C0.223513 151.94 -1.99646 128.937 1.81116 106.544C5.61879 84.1503 15.3168 63.1736 29.9099 45.7667C44.5029 28.3597 63.4651 15.1496 84.8503 7.49232C106.235 -0.164966 129.273 -1.9936 151.598 2.19412C173.924 6.38184 194.732 16.4351 211.889 31.3219C229.045 46.2086 241.931 65.3927 249.224 86.9049L193.742 105.713C189.787 94.047 182.799 83.6431 173.494 75.5697C164.19 67.4963 152.905 62.0443 140.798 59.7732C128.69 57.5021 116.197 58.4938 104.599 62.6465C93.0016 66.7992 82.718 73.9633 74.8039 83.4034C66.8899 92.8435 61.6305 104.22 59.5655 116.364C57.5006 128.508 58.7045 140.983 63.0537 152.508C67.403 164.034 74.7408 174.194 84.3141 181.946C93.8873 189.699 105.351 194.764 117.529 196.622L108.692 254.535Z" fill="#D9D9D9"/>
</g>
<defs>
<clipPath id="clip0_28_2">
<rect width="256" height="256" fill="white"/>
</clipPath>
</defs>
</svg>
